<?xml version="1.0" encoding="UTF-8" standalone="no"?>
<!DOCTYPE svg PUBLIC "-//W3C//DTD SVG 1.1//EN" "http://www.w3.org/Graphics/SVG/1.1/DTD/svg11.dtd">
<!-- Generiert durch Microsoft Visio, SVG Export Aktivität_Datenanpassung.svg Page-1 -->
<svg xmlns="http://www.w3.org/2000/svg" xmlns:xlink="http://www.w3.org/1999/xlink" xmlns:ev="http://www.w3.org/2001/xml-events"
		xmlns:v="http://schemas.microsoft.com/visio/2003/SVGExtensions/" width="10.2893in" height="3.15792in"
		viewBox="0 0 740.827 227.371" xml:space="preserve" color-interpolation-filters="sRGB" class="st12">
	<v:documentProperties v:langID="1031" v:metric="true" v:viewMarkup="false">
		<v:userDefs>
			<v:ud v:nameU="msvNoAutoConnect" v:prompt="" v:val="VT0(0):26"/>
		</v:userDefs>
	</v:documentProperties>

	<style type="text/css">
	<![CDATA[
		.st1 {fill:#5b9bd5;stroke:#5b9bd5;stroke-linecap:round;stroke-linejoin:round;stroke-width:0.5}
		.st2 {fill:#73ae42;stroke:#ffffff;stroke-linecap:round;stroke-linejoin:round;stroke-width:0.5}
		.st3 {fill:#ffffff;font-family:Calibri;font-size:1.00001em}
		.st4 {marker-end:url(#mrkr4-11);stroke:#5592c9;stroke-linecap:round;stroke-linejoin:round;stroke-width:0.5}
		.st5 {fill:#5592c9;fill-opacity:1;stroke:#5592c9;stroke-opacity:1;stroke-width:0.16556291390728}
		.st6 {fill:#a5a5a5}
		.st7 {stroke:#a5a5a5;stroke-linecap:round;stroke-linejoin:round;stroke-width:0.5}
		.st8 {fill:#5b9bd5;stroke:#ffffff;stroke-linecap:round;stroke-linejoin:round;stroke-width:0.5}
		.st9 {fill:#ffffff;stroke:none;stroke-linecap:butt;stroke-width:7.2}
		.st10 {fill:#41719d;font-family:Calibri;font-size:0.666664em}
		.st11 {font-size:1em}
		.st12 {fill:none;fill-rule:evenodd;font-size:12px;overflow:visible;stroke-linecap:square;stroke-miterlimit:3}
	]]>
	</style>

	<defs id="Markers">
		<g id="lend4">
			<path d="M 2 1 L 0 0 L 2 -1 L 2 1 " style="stroke:none"/>
		</g>
		<marker id="mrkr4-11" class="st5" v:arrowType="4" v:arrowSize="2" v:setback="12.08" refX="-12.08" orient="auto"
				markerUnits="strokeWidth" overflow="visible">
			<use xlink:href="#lend4" transform="scale(-6.04,-6.04) "/>
		</marker>
	</defs>
	<g v:mID="0" v:index="1" v:groupContext="foregroundPage">
		<v:userDefs>
			<v:ud v:nameU="msvThemeOrder" v:val="VT0(0):26"/>
		</v:userDefs>
		<title>Zeichenblatt-1</title>
		<v:pageProperties v:drawingScale="0.0393701" v:pageScale="0.0393701" v:drawingUnits="24" v:shadowOffsetX="8.50394"
				v:shadowOffsetY="-8.50394"/>
		<v:layer v:name="Verbinder" v:index="0"/>
		<g id="shape1-1" v:mID="1" v:groupContext="shape" transform="translate(18.25,-175.105)">
			<title>Anfangsknoten</title>
			<v:userDefs>
				<v:ud v:nameU="visVersion" v:prompt="" v:val="VT0(15):26"/>
			</v:userDefs>
			<ellipse cx="17.0079" cy="210.363" rx="17.0079" ry="17.0079" class="st1"/>
		</g>
		<g id="shape2-3" v:mID="2" v:groupContext="shape" transform="translate(93.2393,-175.105)">
			<title>Aktion</title>
			<desc>Einloggen</desc>
			<v:userDefs>
				<v:ud v:nameU="visVersion" v:prompt="" v:val="VT0(15):26"/>
			</v:userDefs>
			<v:textBlock v:margins="rect(4,4,4,4)" v:tabSpace="42.5197"/>
			<v:textRect cx="66.743" cy="210.363" width="133.49" height="34.0157"/>
			<rect x="0" y="193.355" width="133.486" height="34.0157" rx="8.50394" ry="8.50394" class="st2"/>
			<text x="42.96" y="213.96" class="st3" v:langID="1031"><v:paragraph v:horizAlign="1"/><v:tabList/>Einloggen</text>		</g>
		<g id="shape5-6" v:mID="5" v:groupContext="shape" v:layerMember="0" transform="translate(52.2657,-199.199)">
			<title>Dynamischer Verbinder</title>
			<path d="M0 234.46 L34.93 234.46" class="st4"/>
		</g>
		<g id="shape8-12" v:mID="8" v:groupContext="shape" transform="translate(688.561,-40.4)">
			<title>Abschlussknoten</title>
			<v:userDefs>
				<v:ud v:nameU="visVersion" v:prompt="" v:val="VT0(15):26"/>
			</v:userDefs>
			<path d="M30.61 210.36 A13.6063 13.6063 -180 1 0 3.4 210.36 A13.6063 13.6063 -180 1 0 30.61 210.36 Z" class="st6"/>
			<path d="M34.02 210.36 A17.0079 17.0079 -180 1 0 0 210.36 A17.0079 17.0079 -180 1 0 34.02 210.36" class="st7"/>
			<path d="M30.61 210.36 A13.6063 13.6063 -180 1 0 3.4 210.36 A13.6063 13.6063 -180 1 0 30.61 210.36" class="st7"/>
		</g>
		<g id="shape10-16" v:mID="10" v:groupContext="shape" transform="translate(93.2393,-107.752)">
			<title>Aktion.10</title>
			<desc>Nutzer verifizieren</desc>
			<v:userDefs>
				<v:ud v:nameU="visVersion" v:prompt="" v:val="VT0(15):26"/>
			</v:userDefs>
			<v:textBlock v:margins="rect(4,4,4,4)" v:tabSpace="42.5197"/>
			<v:textRect cx="66.743" cy="210.363" width="133.49" height="34.0157"/>
			<rect x="0" y="193.355" width="133.486" height="34.0157" rx="8.50394" ry="8.50394" class="st2"/>
			<text x="21.57" y="213.96" class="st3" v:langID="1031"><v:paragraph v:horizAlign="1"/><v:tabList/>Nutzer verifizieren</text>		</g>
		<g id="shape11-19" v:mID="11" v:groupContext="shape" transform="translate(230.895,-40.4)">
			<title>Aktion.11</title>
			<desc>Nutzerkonto öffnen</desc>
			<v:userDefs>
				<v:ud v:nameU="visVersion" v:prompt="" v:val="VT0(15):26"/>
			</v:userDefs>
			<v:textBlock v:margins="rect(4,4,4,4)" v:tabSpace="42.5197"/>
			<v:textRect cx="66.743" cy="210.363" width="133.49" height="34.0157"/>
			<rect x="0" y="193.355" width="133.486" height="34.0157" rx="8.50394" ry="8.50394" class="st2"/>
			<text x="18.57" y="213.96" class="st3" v:langID="1031"><v:paragraph v:horizAlign="1"/><v:tabList/>Nutzerkonto öffnen</text>		</g>
		<g id="shape12-22" v:mID="12" v:groupContext="shape" transform="translate(142.974,-40.4)">
			<title>Entscheidung</title>
			<v:userDefs>
				<v:ud v:nameU="visVersion" v:prompt="" v:val="VT0(15):26"/>
			</v:userDefs>
			<path d="M17.01 227.37 L34.02 210.36 L17.01 193.35 L0 210.36 L17.01 227.37 Z" class="st8"/>
		</g>
		<g id="shape13-24" v:mID="13" v:groupContext="shape" v:layerMember="0" transform="translate(152.896,-107.752)">
			<title>Dynamischer Verbinder.13</title>
			<path d="M7.09 227.37 L7.09 254.67" class="st4"/>
		</g>
		<g id="shape14-29" v:mID="14" v:groupContext="shape" v:layerMember="0" transform="translate(176.99,-50.3213)">
			<title>Dynamischer Verbinder.14</title>
			<desc>Verifikation erfolgreich</desc>
			<v:textBlock v:margins="rect(4,4,4,4)" v:tabSpace="42.5197"/>
			<v:textRect cx="21.435" cy="205.349" width="47.64" height="27.2035"/>
			<path d="M0 220.28 L47.86 220.28" class="st4"/>
			<rect v:rectContext="textBkgnd" x="2.52136" y="195.749" width="37.8276" height="19.1997" class="st9"/>
			<text x="2.52" y="202.95" class="st10" v:langID="1031"><v:paragraph v:horizAlign="1"/><v:tabList/>Verifikation<v:newlineChar/><tspan
						x="3.82" dy="1.2em" class="st11">erfolgreich</tspan></text>		</g>
		<g id="shape17-37" v:mID="17" v:groupContext="shape" v:layerMember="0" transform="translate(142.974,-50.3213)">
			<title>Dynamischer Verbinder.17</title>
			<desc>Verifikation nicht erfolgreich</desc>
			<v:textBlock v:margins="rect(4,4,4,4)" v:tabSpace="42.5197"/>
			<v:textRect cx="-32.4232" cy="203.081" width="47.64" height="36.8035"/>
			<path d="M0 220.28 L-65.96 220.28" class="st4"/>
			<rect v:rectContext="textBkgnd" x="-51.3369" y="188.682" width="37.8276" height="28.7996" class="st9"/>
			<text x="-51.34" y="195.88" class="st10" v:langID="1031"><v:paragraph v:horizAlign="1"/><v:tabList/>Verifikation<v:newlineChar/><tspan
						x="-40.58" dy="1.2em" class="st11">nicht<v:newlineChar/></tspan><tspan x="-50.03" dy="1.2em" class="st11">erfolgreich</tspan></text>		</g>
		<g id="shape19-46" v:mID="19" v:groupContext="shape" transform="translate(36.9587,-40.4)">
			<title>Abschlussknoten.19</title>
			<v:userDefs>
				<v:ud v:nameU="visVersion" v:prompt="" v:val="VT0(15):26"/>
			</v:userDefs>
			<path d="M30.61 210.36 A13.6063 13.6063 -180 1 0 3.4 210.36 A13.6063 13.6063 -180 1 0 30.61 210.36 Z" class="st6"/>
			<path d="M34.02 210.36 A17.0079 17.0079 -180 1 0 0 210.36 A17.0079 17.0079 -180 1 0 34.02 210.36" class="st7"/>
			<path d="M30.61 210.36 A13.6063 13.6063 -180 1 0 3.4 210.36 A13.6063 13.6063 -180 1 0 30.61 210.36" class="st7"/>
		</g>
		<g id="shape20-50" v:mID="20" v:groupContext="shape" v:layerMember="0" transform="translate(152.896,-175.105)">
			<title>Dynamischer Verbinder.20</title>
			<path d="M7.09 227.37 L7.09 254.67" class="st4"/>
		</g>
		<g id="shape22-55" v:mID="22" v:groupContext="shape" v:layerMember="0" transform="translate(364.381,-50.3213)">
			<title>Dynamischer Verbinder.22</title>
			<path d="M0 220.28 L26.43 220.28" class="st4"/>
		</g>
		<g id="shape21-60" v:mID="21" v:groupContext="shape" transform="translate(396.85,-31.8059)">
			<title>Aktion.21</title>
			<desc>Formular zum Anpassen der Daten ausfüllen</desc>
			<v:userDefs>
				<v:ud v:nameU="visVersion" v:prompt="" v:val="VT0(15):26"/>
			</v:userDefs>
			<v:textBlock v:margins="rect(4,4,4,4)" v:tabSpace="42.5197"/>
			<v:textRect cx="56.6929" cy="201.769" width="113.39" height="51.2039"/>
			<rect x="0" y="176.167" width="113.386" height="51.2039" rx="8.50394" ry="8.50394" class="st2"/>
			<text x="22.72" y="190.97" class="st3" v:langID="1031"><v:paragraph v:horizAlign="1"/><v:tabList/>Formular zum <tspan
						x="7.56" dy="1.2em" class="st11">Anpassen der Daten<v:newlineChar/></tspan><tspan x="34.44" dy="1.2em"
						class="st11">ausfüllen</tspan></text>		</g>
		<g id="shape29-65" v:mID="29" v:groupContext="shape" v:layerMember="0" transform="translate(510.236,-50.3213)">
			<title>Dynamischer Verbinder.29</title>
			<path d="M0 220.28 L26.43 220.28" class="st4"/>
		</g>
		<g id="shape28-70" v:mID="28" v:groupContext="shape" transform="translate(542.706,-31.8059)">
			<title>Aktion.28</title>
			<desc>Geänderte Daten zu UID in PostgreDB aktualisieren</desc>
			<v:userDefs>
				<v:ud v:nameU="visVersion" v:prompt="" v:val="VT0(15):26"/>
			</v:userDefs>
			<v:textBlock v:margins="rect(4,4,4,4)" v:tabSpace="42.5197"/>
			<v:textRect cx="56.6929" cy="201.769" width="113.39" height="51.2039"/>
			<rect x="0" y="176.167" width="113.386" height="51.2039" rx="8.50394" ry="8.50394" class="st2"/>
			<text x="7.72" y="190.97" class="st3" v:langID="1031"><v:paragraph v:horizAlign="1"/><v:tabList/>Geänderte Daten zu <tspan
						x="14.92" dy="1.2em" class="st11">UID in PostgreDB<v:newlineChar/></tspan><tspan x="25.36" dy="1.2em"
						class="st11">aktualisieren</tspan></text>		</g>
		<g id="shape32-75" v:mID="32" v:groupContext="shape" v:layerMember="0" transform="translate(656.092,-50.3213)">
			<title>Dynamischer Verbinder.32</title>
			<path d="M0 220.28 L26.43 220.28" class="st4"/>
		</g>
	</g>
</svg>
