<?xml version="1.0" encoding="UTF-8" standalone="no"?>
<!DOCTYPE svg PUBLIC "-//W3C//DTD SVG 1.1//EN" "http://www.w3.org/Graphics/SVG/1.1/DTD/svg11.dtd">
<!-- Generiert durch Microsoft Visio, SVG Export ZustandsdiagrammGUI.svg Page-1 -->
<svg xmlns="http://www.w3.org/2000/svg" xmlns:xlink="http://www.w3.org/1999/xlink" xmlns:ev="http://www.w3.org/2001/xml-events"
		xmlns:v="http://schemas.microsoft.com/visio/2003/SVGExtensions/" width="9.50838in" height="5.16367in"
		viewBox="0 0 684.603 371.784" xml:space="preserve" color-interpolation-filters="sRGB" class="st8">
	<v:documentProperties v:langID="1031" v:metric="true" v:viewMarkup="false">
		<v:userDefs>
			<v:ud v:nameU="msvNoAutoConnect" v:prompt="" v:val="VT0(0):26"/>
		</v:userDefs>
	</v:documentProperties>

	<style type="text/css">
	<![CDATA[
		.st1 {fill:#73ae42;stroke:#ffffff;stroke-linecap:round;stroke-linejoin:round;stroke-width:0.5}
		.st2 {fill:#73ae42;stroke:#73ae42;stroke-linecap:round;stroke-linejoin:round;stroke-width:0.5}
		.st3 {fill:#ffffff;font-family:Calibri;font-size:1.00001em;font-weight:bold}
		.st4 {fill:#ffffff;stroke:#73ae42;stroke-linecap:round;stroke-linejoin:round;stroke-width:0.5}
		.st5 {fill:#5b9bd5;stroke:#5b9bd5;stroke-linecap:round;stroke-linejoin:round;stroke-width:0.5}
		.st6 {marker-end:url(#mrkr12-89);stroke:#5592c9;stroke-dasharray:3.5,2.5;stroke-linecap:round;stroke-linejoin:round;stroke-width:0.5}
		.st7 {fill:#5592c9;fill-opacity:1;stroke:#5592c9;stroke-opacity:1;stroke-width:0.16556291390728}
		.st8 {fill:none;fill-rule:evenodd;font-size:12px;overflow:visible;stroke-linecap:square;stroke-miterlimit:3}
	]]>
	</style>

	<defs id="Markers">
		<g id="lend12">
			<path d="M 3 1 L 0 0 L 3 -1 " style="stroke-linecap:round;stroke-linejoin:round;fill:none"/>
		</g>
		<marker id="mrkr12-89" class="st7" v:arrowType="12" v:arrowSize="2" orient="auto" markerUnits="strokeWidth"
				overflow="visible">
			<use xlink:href="#lend12" transform="scale(-6.04,-6.04) "/>
		</marker>
	</defs>
	<g v:mID="0" v:index="1" v:groupContext="foregroundPage">
		<v:userDefs>
			<v:ud v:nameU="msvThemeOrder" v:val="VT0(0):26"/>
		</v:userDefs>
		<title>Zeichenblatt-1</title>
		<v:pageProperties v:drawingScale="0.0393701" v:pageScale="0.0393701" v:drawingUnits="24" v:shadowOffsetX="8.50394"
				v:shadowOffsetY="-8.50394"/>
		<v:layer v:name="Verbinder" v:index="0"/>
		<g id="group1-1" transform="translate(91.9508,-274.152)" v:mID="1" v:groupContext="group">
			<v:userDefs>
				<v:ud v:nameU="visVersion" v:prompt="" v:val="VT0(15):26"/>
			</v:userDefs>
			<title>Zustand</title>
			<g id="shape1-2" v:mID="1" v:groupContext="groupContent">
				<rect x="0" y="326.981" width="116.608" height="44.8037" rx="8.50394" ry="8.50394" class="st1"/>
			</g>
			<g id="shape2-4" v:mID="2" v:groupContext="shape" transform="translate(0,-22.4)">
				<title>Tabelle.2</title>
				<desc>Foyer - Interessenten</desc>
				<v:userDefs>
					<v:ud v:nameU="UmlRole" v:prompt="" v:val="VT4(Title)"/>
				</v:userDefs>
				<v:textBlock v:margins="rect(4,4,4,4)" v:tabSpace="42.5197"/>
				<v:textRect cx="58.3039" cy="360.582" width="116.61" height="22.4037"/>
				<path d="M8.5 371.78 L108.1 371.78 A8.50394 8.50394 -180 0 0 116.61 363.28 L116.61 357.88 A8.50394 8.50394 -180 0
							 0 108.1 349.38 L8.5 349.38 A8.50394 8.50394 -180 0 0 0 357.88 L0 363.28 A8.50394 8.50394 -180 0 0 8.5
							 371.78 Z" class="st2"/>
				<text x="5.36" y="364.18" class="st3" v:langID="1031"><v:paragraph v:horizAlign="1"/><v:tabList/>Foyer - Interessenten</text>			</g>
			<g id="shape3-7" v:mID="3" v:groupContext="shape">
				<title>Tabelle.3</title>
				<v:userDefs>
					<v:ud v:nameU="UmlRole" v:prompt="" v:val="VT4(Body)"/>
				</v:userDefs>
				<path d="M8.5 371.78 L108.1 371.78 A8.50394 8.50394 -180 0 0 116.61 363.28 L116.61 357.89 A8.50394 8.50394 -180 0
							 0 108.1 349.38 L8.5 349.38 A8.50394 8.50394 -180 0 0 0 357.89 L0 363.28 A8.50394 8.50394 -180 0 0 8.5
							 371.78 Z" class="st4"/>
			</g>
		</g>
		<g id="group4-9" transform="translate(272.456,-191.163)" v:mID="4" v:groupContext="group">
			<v:userDefs>
				<v:ud v:nameU="visVersion" v:prompt="" v:val="VT0(15):26"/>
			</v:userDefs>
			<title>Zustand.4</title>
			<g id="shape4-10" v:mID="4" v:groupContext="groupContent">
				<rect x="0" y="326.981" width="81.1934" height="44.8037" rx="8.50394" ry="8.50394" class="st1"/>
			</g>
			<g id="shape5-12" v:mID="5" v:groupContext="shape" transform="translate(0,-22.4)">
				<title>Tabelle.5</title>
				<desc>Foyer - Bürger</desc>
				<v:userDefs>
					<v:ud v:nameU="UmlRole" v:prompt="" v:val="VT4(Title)"/>
				</v:userDefs>
				<v:textBlock v:margins="rect(4,4,4,4)" v:tabSpace="42.5197"/>
				<v:textRect cx="40.5967" cy="360.582" width="81.2" height="22.4037"/>
				<path d="M8.5 371.78 L72.69 371.78 A8.50394 8.50394 -180 0 0 81.19 363.28 L81.19 357.88 A8.50394 8.50394 -180 0 0
							 72.69 349.38 L8.5 349.38 A8.50394 8.50394 -180 0 0 -0 357.88 L0 363.28 A8.50394 8.50394 -180 0 0 8.5
							 371.78 Z" class="st2"/>
				<text x="5.36" y="364.18" class="st3" v:langID="1031"><v:paragraph v:horizAlign="1"/><v:tabList/>Foyer - Bürger</text>			</g>
			<g id="shape6-15" v:mID="6" v:groupContext="shape">
				<title>Tabelle.6</title>
				<v:userDefs>
					<v:ud v:nameU="UmlRole" v:prompt="" v:val="VT4(Body)"/>
				</v:userDefs>
				<path d="M8.5 371.78 L72.69 371.78 A8.50394 8.50394 -180 0 0 81.19 363.28 L81.19 357.89 A8.50394 8.50394 -180 0 0
							 72.69 349.38 L8.5 349.38 A8.50394 8.50394 -180 0 0 -0 357.89 L0 363.28 A8.50394 8.50394 -180 0 0 8.5
							 371.78 Z" class="st4"/>
			</g>
		</g>
		<g id="group7-17" transform="translate(49.1675,-189.939)" v:mID="7" v:groupContext="group">
			<v:userDefs>
				<v:ud v:nameU="visVersion" v:prompt="" v:val="VT0(15):26"/>
			</v:userDefs>
			<title>Zustand.7</title>
			<g id="shape7-18" v:mID="7" v:groupContext="groupContent">
				<rect x="0" y="326.981" width="176.275" height="44.8037" rx="8.50394" ry="8.50394" class="st1"/>
			</g>
			<g id="shape8-20" v:mID="8" v:groupContext="shape" transform="translate(0,-22.4)">
				<title>Tabelle.8</title>
				<desc>Aushänge - Interessenten/Bürger</desc>
				<v:userDefs>
					<v:ud v:nameU="UmlRole" v:prompt="" v:val="VT4(Title)"/>
				</v:userDefs>
				<v:textBlock v:margins="rect(4,4,4,4)" v:tabSpace="42.5197"/>
				<v:textRect cx="88.1376" cy="360.582" width="176.28" height="22.4037"/>
				<path d="M8.5 371.78 L167.77 371.78 A8.50394 8.50394 -180 0 0 176.28 363.28 L176.28 357.88 A8.50394 8.50394 -180
							 0 0 167.77 349.38 L8.5 349.38 A8.50394 8.50394 -180 0 0 -0 357.88 L0 363.28 A8.50394 8.50394 -180 0
							 0 8.5 371.78 Z" class="st2"/>
				<text x="5.36" y="364.18" class="st3" v:langID="1031"><v:paragraph v:horizAlign="1"/><v:tabList/>Aushänge - Interessenten/Bürger</text>			</g>
			<g id="shape9-23" v:mID="9" v:groupContext="shape">
				<title>Tabelle.9</title>
				<v:userDefs>
					<v:ud v:nameU="UmlRole" v:prompt="" v:val="VT4(Body)"/>
				</v:userDefs>
				<path d="M8.5 371.78 L167.77 371.78 A8.50394 8.50394 -180 0 0 176.28 363.28 L176.28 357.89 A8.50394 8.50394 -180
							 0 0 167.77 349.38 L8.5 349.38 A8.50394 8.50394 -180 0 0 -0 357.89 L0 363.28 A8.50394 8.50394 -180 0
							 0 8.5 371.78 Z" class="st4"/>
			</g>
		</g>
		<g id="group10-25" transform="translate(539.825,-191.163)" v:mID="10" v:groupContext="group">
			<v:userDefs>
				<v:ud v:nameU="visVersion" v:prompt="" v:val="VT0(15):26"/>
			</v:userDefs>
			<title>Zustand.10</title>
			<g id="shape10-26" v:mID="10" v:groupContext="groupContent">
				<rect x="0" y="326.981" width="126.529" height="44.8037" rx="8.50394" ry="8.50394" class="st1"/>
			</g>
			<g id="shape11-28" v:mID="11" v:groupContext="shape" transform="translate(0,-22.4)">
				<title>Tabelle.11</title>
				<desc>Aushänge - Mitarbeiter</desc>
				<v:userDefs>
					<v:ud v:nameU="UmlRole" v:prompt="" v:val="VT4(Title)"/>
				</v:userDefs>
				<v:textBlock v:margins="rect(4,4,4,4)" v:tabSpace="42.5197"/>
				<v:textRect cx="63.2643" cy="360.582" width="126.53" height="22.4037"/>
				<path d="M8.5 371.78 L118.02 371.78 A8.50394 8.50394 -180 0 0 126.53 363.28 L126.53 357.88 A8.50394 8.50394 -180
							 0 0 118.02 349.38 L8.5 349.38 A8.50394 8.50394 -180 0 0 0 357.88 L0 363.28 A8.50394 8.50394 -180 0 0
							 8.5 371.78 Z" class="st2"/>
				<text x="5.36" y="364.18" class="st3" v:langID="1031"><v:paragraph v:horizAlign="1"/><v:tabList/>Aushänge - Mitarbeiter</text>			</g>
			<g id="shape12-31" v:mID="12" v:groupContext="shape">
				<title>Tabelle.12</title>
				<v:userDefs>
					<v:ud v:nameU="UmlRole" v:prompt="" v:val="VT4(Body)"/>
				</v:userDefs>
				<path d="M8.5 371.78 L118.02 371.78 A8.50394 8.50394 -180 0 0 126.53 363.28 L126.53 357.89 A8.50394 8.50394 -180
							 0 0 118.02 349.38 L8.5 349.38 A8.50394 8.50394 -180 0 0 0 357.89 L0 363.28 A8.50394 8.50394 -180 0 0
							 8.5 371.78 Z" class="st4"/>
			</g>
		</g>
		<g id="group13-33" transform="translate(458.844,-274.152)" v:mID="13" v:groupContext="group">
			<v:userDefs>
				<v:ud v:nameU="visVersion" v:prompt="" v:val="VT0(15):26"/>
			</v:userDefs>
			<title>Zustand.13</title>
			<g id="shape13-34" v:mID="13" v:groupContext="groupContent">
				<rect x="0" y="326.981" width="77.1864" height="44.8037" rx="8.50394" ry="8.50394" class="st1"/>
			</g>
			<g id="shape14-36" v:mID="14" v:groupContext="shape" transform="translate(0,-22.4)">
				<title>Tabelle.14</title>
				<desc>Registrierung</desc>
				<v:userDefs>
					<v:ud v:nameU="UmlRole" v:prompt="" v:val="VT4(Title)"/>
				</v:userDefs>
				<v:textBlock v:margins="rect(4,4,4,4)" v:tabSpace="42.5197"/>
				<v:textRect cx="38.5932" cy="360.582" width="77.19" height="22.4037"/>
				<path d="M8.5 371.78 L68.68 371.78 A8.50394 8.50394 -180 0 0 77.19 363.28 L77.19 357.88 A8.50394 8.50394 -180 0 0
							 68.68 349.38 L8.5 349.38 A8.50394 8.50394 -180 0 0 -0 357.88 L0 363.28 A8.50394 8.50394 -180 0 0 8.5
							 371.78 Z" class="st2"/>
				<text x="5.36" y="364.18" class="st3" v:langID="1031"><v:paragraph v:horizAlign="1"/><v:tabList/>Registrierung</text>			</g>
			<g id="shape15-39" v:mID="15" v:groupContext="shape">
				<title>Tabelle.15</title>
				<v:userDefs>
					<v:ud v:nameU="UmlRole" v:prompt="" v:val="VT4(Body)"/>
				</v:userDefs>
				<path d="M8.5 371.78 L68.68 371.78 A8.50394 8.50394 -180 0 0 77.19 363.28 L77.19 357.89 A8.50394 8.50394 -180 0 0
							 68.68 349.38 L8.5 349.38 A8.50394 8.50394 -180 0 0 -0 357.89 L0 363.28 A8.50394 8.50394 -180 0 0 8.5
							 371.78 Z" class="st4"/>
			</g>
		</g>
		<g id="group16-41" transform="translate(311.636,-274.152)" v:mID="16" v:groupContext="group">
			<v:userDefs>
				<v:ud v:nameU="visVersion" v:prompt="" v:val="VT0(15):26"/>
			</v:userDefs>
			<title>Zustand.16</title>
			<g id="shape16-42" v:mID="16" v:groupContext="groupContent">
				<rect x="0" y="326.981" width="70.8661" height="44.8037" rx="8.50394" ry="8.50394" class="st1"/>
			</g>
			<g id="shape17-44" v:mID="17" v:groupContext="shape" transform="translate(0,-22.4)">
				<title>Tabelle.17</title>
				<desc>Anmeldung</desc>
				<v:userDefs>
					<v:ud v:nameU="UmlRole" v:prompt="" v:val="VT4(Title)"/>
				</v:userDefs>
				<v:textBlock v:margins="rect(4,4,4,4)" v:tabSpace="42.5197"/>
				<v:textRect cx="35.4331" cy="360.582" width="70.87" height="22.4037"/>
				<path d="M8.5 371.78 L62.36 371.78 A8.50394 8.50394 -180 0 0 70.87 363.28 L70.87 357.88 A8.50394 8.50394 -180 0 0
							 62.36 349.38 L8.5 349.38 A8.50394 8.50394 -180 0 0 -0 357.88 L0 363.28 A8.50394 8.50394 -180 0 0 8.5
							 371.78 Z" class="st2"/>
				<text x="6.7" y="364.18" class="st3" v:langID="1031"><v:paragraph v:horizAlign="1"/><v:tabList/>Anmeldung</text>			</g>
			<g id="shape18-47" v:mID="18" v:groupContext="shape">
				<title>Tabelle.18</title>
				<v:userDefs>
					<v:ud v:nameU="UmlRole" v:prompt="" v:val="VT4(Body)"/>
				</v:userDefs>
				<path d="M8.5 371.78 L62.36 371.78 A8.50394 8.50394 -180 0 0 70.87 363.28 L70.87 357.89 A8.50394 8.50394 -180 0 0
							 62.36 349.38 L8.5 349.38 A8.50394 8.50394 -180 0 0 -0 357.89 L0 363.28 A8.50394 8.50394 -180 0 0 8.5
							 371.78 Z" class="st4"/>
			</g>
		</g>
		<g id="group22-49" transform="translate(148.644,-117.463)" v:mID="22" v:groupContext="group">
			<v:userDefs>
				<v:ud v:nameU="visVersion" v:prompt="" v:val="VT0(15):26"/>
			</v:userDefs>
			<title>Zustand.22</title>
			<g id="shape22-50" v:mID="22" v:groupContext="groupContent">
				<rect x="0" y="326.981" width="116.087" height="44.8037" rx="8.50394" ry="8.50394" class="st1"/>
			</g>
			<g id="shape23-52" v:mID="23" v:groupContext="shape" transform="translate(0,-22.4)">
				<title>Tabelle.23</title>
				<desc>Nutzerkonto - Bürger</desc>
				<v:userDefs>
					<v:ud v:nameU="UmlRole" v:prompt="" v:val="VT4(Title)"/>
				</v:userDefs>
				<v:textBlock v:margins="rect(4,4,4,4)" v:tabSpace="42.5197"/>
				<v:textRect cx="58.0434" cy="360.582" width="116.09" height="22.4037"/>
				<path d="M8.5 371.78 L107.58 371.78 A8.50394 8.50394 -180 0 0 116.09 363.28 L116.09 357.88 A8.50394 8.50394 -180
							 0 0 107.58 349.38 L8.5 349.38 A8.50394 8.50394 -180 0 0 0 357.88 L0 363.28 A8.50394 8.50394 -180 0 0
							 8.5 371.78 Z" class="st2"/>
				<text x="5.36" y="364.18" class="st3" v:langID="1031"><v:paragraph v:horizAlign="1"/><v:tabList/>Nutzerkonto - Bürger</text>			</g>
			<g id="shape24-55" v:mID="24" v:groupContext="shape">
				<title>Tabelle.24</title>
				<v:userDefs>
					<v:ud v:nameU="UmlRole" v:prompt="" v:val="VT4(Body)"/>
				</v:userDefs>
				<path d="M8.5 371.78 L107.58 371.78 A8.50394 8.50394 -180 0 0 116.09 363.28 L116.09 357.89 A8.50394 8.50394 -180
							 0 0 107.58 349.38 L8.5 349.38 A8.50394 8.50394 -180 0 0 0 357.89 L0 363.28 A8.50394 8.50394 -180 0 0
							 8.5 371.78 Z" class="st4"/>
			</g>
		</g>
		<g id="group25-57" transform="translate(491.669,-108.175)" v:mID="25" v:groupContext="group">
			<v:userDefs>
				<v:ud v:nameU="visVersion" v:prompt="" v:val="VT0(15):26"/>
			</v:userDefs>
			<title>Zustand.25</title>
			<g id="shape25-58" v:mID="25" v:groupContext="groupContent">
				<rect x="0" y="326.981" width="104.848" height="44.8037" rx="8.50394" ry="8.50394" class="st1"/>
			</g>
			<g id="shape26-60" v:mID="26" v:groupContext="shape" transform="translate(0,-22.4)">
				<title>Tabelle.26</title>
				<desc>Work - Mitarbeiter</desc>
				<v:userDefs>
					<v:ud v:nameU="UmlRole" v:prompt="" v:val="VT4(Title)"/>
				</v:userDefs>
				<v:textBlock v:margins="rect(4,4,4,4)" v:tabSpace="42.5197"/>
				<v:textRect cx="52.4242" cy="360.582" width="104.85" height="22.4037"/>
				<path d="M8.5 371.78 L96.34 371.78 A8.50394 8.50394 -180 0 0 104.85 363.28 L104.85 357.88 A8.50394 8.50394 -180 0
							 0 96.34 349.38 L8.5 349.38 A8.50394 8.50394 -180 0 0 0 357.88 L0 363.28 A8.50394 8.50394 -180 0 0 8.5
							 371.78 Z" class="st2"/>
				<text x="5.36" y="364.18" class="st3" v:langID="1031"><v:paragraph v:horizAlign="1"/><v:tabList/>Work - Mitarbeiter</text>			</g>
			<g id="shape27-63" v:mID="27" v:groupContext="shape">
				<title>Tabelle.27</title>
				<v:userDefs>
					<v:ud v:nameU="UmlRole" v:prompt="" v:val="VT4(Body)"/>
				</v:userDefs>
				<path d="M8.5 371.78 L96.34 371.78 A8.50394 8.50394 -180 0 0 104.85 363.28 L104.85 357.89 A8.50394 8.50394 -180 0
							 0 96.34 349.38 L8.5 349.38 A8.50394 8.50394 -180 0 0 0 357.89 L0 363.28 A8.50394 8.50394 -180 0 0 8.5
							 371.78 Z" class="st4"/>
			</g>
		</g>
		<g id="group28-65" transform="translate(40.0409,-18.25)" v:mID="28" v:groupContext="group">
			<v:userDefs>
				<v:ud v:nameU="visVersion" v:prompt="" v:val="VT0(15):26"/>
			</v:userDefs>
			<title>Zustand.28</title>
			<g id="shape28-66" v:mID="28" v:groupContext="groupContent">
				<rect x="0" y="326.981" width="142.619" height="44.8037" rx="8.50394" ry="8.50394" class="st1"/>
			</g>
			<g id="shape29-68" v:mID="29" v:groupContext="shape" transform="translate(0,-22.4)">
				<title>Tabelle.29</title>
				<desc>Aushang erstellen - Bürger</desc>
				<v:userDefs>
					<v:ud v:nameU="UmlRole" v:prompt="" v:val="VT4(Title)"/>
				</v:userDefs>
				<v:textBlock v:margins="rect(4,4,4,4)" v:tabSpace="42.5197"/>
				<v:textRect cx="71.3093" cy="360.582" width="142.62" height="22.4037"/>
				<path d="M8.5 371.78 L134.11 371.78 A8.50394 8.50394 -180 0 0 142.62 363.28 L142.62 357.88 A8.50394 8.50394 -180
							 0 0 134.11 349.38 L8.5 349.38 A8.50394 8.50394 -180 0 0 0 357.88 L0 363.28 A8.50394 8.50394 -180 0 0
							 8.5 371.78 Z" class="st2"/>
				<text x="5.36" y="364.18" class="st3" v:langID="1031"><v:paragraph v:horizAlign="1"/><v:tabList/>Aushang erstellen - Bürger</text>			</g>
			<g id="shape30-71" v:mID="30" v:groupContext="shape">
				<title>Tabelle.30</title>
				<v:userDefs>
					<v:ud v:nameU="UmlRole" v:prompt="" v:val="VT4(Body)"/>
				</v:userDefs>
				<path d="M8.5 371.78 L134.11 371.78 A8.50394 8.50394 -180 0 0 142.62 363.28 L142.62 357.89 A8.50394 8.50394 -180
							 0 0 134.11 349.38 L8.5 349.38 A8.50394 8.50394 -180 0 0 0 357.89 L0 363.28 A8.50394 8.50394 -180 0 0
							 8.5 371.78 Z" class="st4"/>
			</g>
		</g>
		<g id="group31-73" transform="translate(215.654,-18.25)" v:mID="31" v:groupContext="group">
			<v:userDefs>
				<v:ud v:nameU="visVersion" v:prompt="" v:val="VT0(15):26"/>
			</v:userDefs>
			<title>Zustand.31</title>
			<g id="shape31-74" v:mID="31" v:groupContext="groupContent">
				<rect x="0" y="326.981" width="154.092" height="44.8037" rx="8.50394" ry="8.50394" class="st1"/>
			</g>
			<g id="shape32-76" v:mID="32" v:groupContext="shape" transform="translate(0,-22.4)">
				<title>Tabelle.32</title>
				<desc>Nutzerdaten ändern - Bürger</desc>
				<v:userDefs>
					<v:ud v:nameU="UmlRole" v:prompt="" v:val="VT4(Title)"/>
				</v:userDefs>
				<v:textBlock v:margins="rect(4,4,4,4)" v:tabSpace="42.5197"/>
				<v:textRect cx="77.0458" cy="360.582" width="154.1" height="22.4037"/>
				<path d="M8.5 371.78 L145.59 371.78 A8.50394 8.50394 -180 0 0 154.09 363.28 L154.09 357.88 A8.50394 8.50394 -180
							 0 0 145.59 349.38 L8.5 349.38 A8.50394 8.50394 -180 0 0 0 357.88 L0 363.28 A8.50394 8.50394 -180 0 0
							 8.5 371.78 Z" class="st2"/>
				<text x="5.36" y="364.18" class="st3" v:langID="1031"><v:paragraph v:horizAlign="1"/><v:tabList/>Nutzerdaten ändern - Bürger</text>			</g>
			<g id="shape33-79" v:mID="33" v:groupContext="shape">
				<title>Tabelle.33</title>
				<v:userDefs>
					<v:ud v:nameU="UmlRole" v:prompt="" v:val="VT4(Body)"/>
				</v:userDefs>
				<path d="M8.5 371.78 L145.59 371.78 A8.50394 8.50394 -180 0 0 154.09 363.28 L154.09 357.89 A8.50394 8.50394 -180
							 0 0 145.59 349.38 L8.5 349.38 A8.50394 8.50394 -180 0 0 0 357.89 L0 363.28 A8.50394 8.50394 -180 0 0
							 8.5 371.78 Z" class="st4"/>
			</g>
		</g>
		<g id="shape34-81" v:mID="34" v:groupContext="shape" transform="translate(18.25,-279.546)">
			<title>Anfangszustand</title>
			<v:userDefs>
				<v:ud v:nameU="visVersion" v:prompt="" v:val="VT0(15):26"/>
			</v:userDefs>
			<ellipse cx="17.0079" cy="354.776" rx="17.0079" ry="17.0079" class="st5"/>
		</g>
		<g id="group51-83" transform="translate(52.2657,-289.467)" v:mID="51" v:groupContext="group" v:layerMember="0">
			<v:userDefs>
				<v:ud v:nameU="visVersion" v:prompt="" v:val="VT0(15):26"/>
				<v:ud v:nameU="RelationshipName" v:prompt="" v:val="VT4()"/>
				<v:ud v:nameU="ShowMulti" v:prompt="" v:val="VT0(0):26"/>
				<v:ud v:nameU="Identifying" v:prompt="" v:val="VT0(1):26"/>
				<v:ud v:nameU="DXBegin" v:prompt="" v:val="VT0(0):1"/>
				<v:ud v:nameU="DYBegin" v:prompt="" v:val="VT0(-0.029527559055118):1"/>
				<v:ud v:nameU="DXEnd" v:prompt="" v:val="VT0(0.029527559055118):1"/>
				<v:ud v:nameU="DYEnd" v:prompt="" v:val="VT0(0):1"/>
				<v:ud v:nameU="BeginAngle" v:prompt="" v:val="VT0(-1.5707963267949):32"/>
				<v:ud v:nameU="EndAngle" v:prompt="" v:val="VT0(0):32"/>
				<v:ud v:nameU="DXBegin" v:prompt="" v:val="VT0(0.008267715879113):24"/>
				<v:ud v:nameU="DYBegin" v:prompt="" v:val="VT0(0):24"/>
				<v:ud v:nameU="DXEnd" v:prompt="" v:val="VT0(0.0082677158791129):24"/>
				<v:ud v:nameU="DYEnd" v:prompt="" v:val="VT0(0):24"/>
				<v:ud v:nameU="BeginAngle" v:prompt="" v:val="VT0(0):32"/>
			</v:userDefs>
			<title>Abhängigkeit</title>
			<g id="shape51-84" v:mID="51" v:groupContext="groupContent" v:layerMember="0">
				<path d="M0 364.7 L39.69 364.7" class="st6"/>
			</g>
		</g>
		<g id="group56-90" transform="translate(208.559,-289.467)" v:mID="56" v:groupContext="group" v:layerMember="0">
			<v:userDefs>
				<v:ud v:nameU="visVersion" v:prompt="" v:val="VT0(15):26"/>
				<v:ud v:nameU="RelationshipName" v:prompt="" v:val="VT4()"/>
				<v:ud v:nameU="ShowMulti" v:prompt="" v:val="VT0(0):26"/>
				<v:ud v:nameU="Identifying" v:prompt="" v:val="VT0(1):26"/>
				<v:ud v:nameU="DXBegin" v:prompt="" v:val="VT0(0):1"/>
				<v:ud v:nameU="DYBegin" v:prompt="" v:val="VT0(-0.029527559055118):1"/>
				<v:ud v:nameU="DXEnd" v:prompt="" v:val="VT0(0.029527559055118):1"/>
				<v:ud v:nameU="DYEnd" v:prompt="" v:val="VT0(0):1"/>
				<v:ud v:nameU="BeginAngle" v:prompt="" v:val="VT0(-1.5707963267949):32"/>
				<v:ud v:nameU="EndAngle" v:prompt="" v:val="VT0(0):32"/>
				<v:ud v:nameU="DXBegin" v:prompt="" v:val="VT0(0.021474412572124):1"/>
				<v:ud v:nameU="DYBegin" v:prompt="" v:val="VT0(8.8817841970013E-16):1"/>
				<v:ud v:nameU="DXEnd" v:prompt="" v:val="VT0(0.021474412572123):1"/>
				<v:ud v:nameU="BeginAngle" v:prompt="" v:val="VT0(4.1359847060639E-14):32"/>
			</v:userDefs>
			<title>Abhängigkeit.56</title>
			<g id="shape56-91" v:mID="56" v:groupContext="groupContent" v:layerMember="0">
				<path d="M0 364.7 L103.08 364.7" class="st6"/>
			</g>
		</g>
		<g id="group61-96" transform="translate(382.502,-289.467)" v:mID="61" v:groupContext="group" v:layerMember="0">
			<v:userDefs>
				<v:ud v:nameU="visVersion" v:prompt="" v:val="VT0(15):26"/>
				<v:ud v:nameU="RelationshipName" v:prompt="" v:val="VT4()"/>
				<v:ud v:nameU="ShowMulti" v:prompt="" v:val="VT0(0):26"/>
				<v:ud v:nameU="Identifying" v:prompt="" v:val="VT0(1):26"/>
				<v:ud v:nameU="DXBegin" v:prompt="" v:val="VT0(0):1"/>
				<v:ud v:nameU="DYBegin" v:prompt="" v:val="VT0(-0.029527559055118):1"/>
				<v:ud v:nameU="DXEnd" v:prompt="" v:val="VT0(0.029527559055118):1"/>
				<v:ud v:nameU="DYEnd" v:prompt="" v:val="VT0(0):1"/>
				<v:ud v:nameU="BeginAngle" v:prompt="" v:val="VT0(-1.5707963267949):32"/>
				<v:ud v:nameU="EndAngle" v:prompt="" v:val="VT0(0):32"/>
				<v:ud v:nameU="DXBegin" v:prompt="" v:val="VT0(0.015904528742062):24"/>
				<v:ud v:nameU="DYBegin" v:prompt="" v:val="VT0(0):1"/>
				<v:ud v:nameU="DXEnd" v:prompt="" v:val="VT0(0.015904528742062):24"/>
				<v:ud v:nameU="BeginAngle" v:prompt="" v:val="VT0(0):32"/>
			</v:userDefs>
			<title>Abhängigkeit.61</title>
			<g id="shape61-97" v:mID="61" v:groupContext="groupContent" v:layerMember="0">
				<path d="M0 364.7 L76.34 364.7" class="st6"/>
			</g>
		</g>
		<g id="group66-102" transform="translate(497.437,-311.869)" v:mID="66" v:groupContext="group" v:layerMember="0">
			<v:userDefs>
				<v:ud v:nameU="visVersion" v:prompt="" v:val="VT0(15):26"/>
				<v:ud v:nameU="RelationshipName" v:prompt="" v:val="VT4()"/>
				<v:ud v:nameU="ShowMulti" v:prompt="" v:val="VT0(0):26"/>
				<v:ud v:nameU="Identifying" v:prompt="" v:val="VT0(1):26"/>
				<v:ud v:nameU="DXBegin" v:prompt="" v:val="VT0(0):1"/>
				<v:ud v:nameU="DYBegin" v:prompt="" v:val="VT0(-0.029527559055118):1"/>
				<v:ud v:nameU="DXEnd" v:prompt="" v:val="VT0(0.029527559055118):1"/>
				<v:ud v:nameU="DYEnd" v:prompt="" v:val="VT0(0):1"/>
				<v:ud v:nameU="BeginAngle" v:prompt="" v:val="VT0(-1.5707963267949):32"/>
				<v:ud v:nameU="EndAngle" v:prompt="" v:val="VT0(0):32"/>
				<v:ud v:nameU="DYBegin" v:prompt="" v:val="VT0(0.041859311774939):1"/>
				<v:ud v:nameU="DXEnd" v:prompt="" v:val="VT0(1.7763568394003E-15):1"/>
				<v:ud v:nameU="DYEnd" v:prompt="" v:val="VT0(-0.041859311774939):1"/>
				<v:ud v:nameU="BeginAngle" v:prompt="" v:val="VT0(1.5707963267949):32"/>
				<v:ud v:nameU="EndAngle" v:prompt="" v:val="VT0(-1.5707963267949):32"/>
			</v:userDefs>
			<title>Abhängigkeit.66</title>
			<g id="shape66-103" v:mID="66" v:groupContext="groupContent" v:layerMember="0">
				<path d="M0 364.7 L0 339.42 L-150.37 339.42 L-150.37 364.7" class="st6"/>
			</g>
		</g>
		<g id="group71-108" transform="translate(347.069,-274.152)" v:mID="71" v:groupContext="group" v:layerMember="0">
			<v:userDefs>
				<v:ud v:nameU="visVersion" v:prompt="" v:val="VT0(15):26"/>
				<v:ud v:nameU="RelationshipName" v:prompt="" v:val="VT4()"/>
				<v:ud v:nameU="ShowMulti" v:prompt="" v:val="VT0(0):26"/>
				<v:ud v:nameU="Identifying" v:prompt="" v:val="VT0(1):26"/>
				<v:ud v:nameU="DXBegin" v:prompt="" v:val="VT0(0):1"/>
				<v:ud v:nameU="DYBegin" v:prompt="" v:val="VT0(-0.029527559055118):1"/>
				<v:ud v:nameU="DXEnd" v:prompt="" v:val="VT0(0.029527559055118):1"/>
				<v:ud v:nameU="DYEnd" v:prompt="" v:val="VT0(0):1"/>
				<v:ud v:nameU="BeginAngle" v:prompt="" v:val="VT0(-1.5707963267949):32"/>
				<v:ud v:nameU="EndAngle" v:prompt="" v:val="VT0(0):32"/>
				<v:ud v:nameU="DXBegin" v:prompt="" v:val="VT0(0):24"/>
				<v:ud v:nameU="DYBegin" v:prompt="" v:val="VT0(-0.015041843817596):1"/>
				<v:ud v:nameU="DXEnd" v:prompt="" v:val="VT0(-1.7763568394003E-15):24"/>
				<v:ud v:nameU="DYEnd" v:prompt="" v:val="VT0(-0.015041843817595):1"/>
				<v:ud v:nameU="EndAngle" v:prompt="" v:val="VT0(-1.570796326795):32"/>
			</v:userDefs>
			<title>Abhängigkeit.71</title>
			<g id="shape71-109" v:mID="71" v:groupContext="groupContent" v:layerMember="0">
				<path d="M0 371.78 L0 389.78 L-34.02 389.78 L-34.02 409.97" class="st6"/>
			</g>
		</g>
		<g id="group81-114" transform="translate(150.867,-274.152)" v:mID="81" v:groupContext="group" v:layerMember="0">
			<v:userDefs>
				<v:ud v:nameU="visVersion" v:prompt="" v:val="VT0(15):26"/>
				<v:ud v:nameU="RelationshipName" v:prompt="" v:val="VT4()"/>
				<v:ud v:nameU="ShowMulti" v:prompt="" v:val="VT0(0):26"/>
				<v:ud v:nameU="Identifying" v:prompt="" v:val="VT0(1):26"/>
				<v:ud v:nameU="DXBegin" v:prompt="" v:val="VT0(0):1"/>
				<v:ud v:nameU="DYBegin" v:prompt="" v:val="VT0(-0.029527559055118):1"/>
				<v:ud v:nameU="DXEnd" v:prompt="" v:val="VT0(0.029527559055118):1"/>
				<v:ud v:nameU="DYEnd" v:prompt="" v:val="VT0(0):1"/>
				<v:ud v:nameU="BeginAngle" v:prompt="" v:val="VT0(-1.5707963267949):32"/>
				<v:ud v:nameU="EndAngle" v:prompt="" v:val="VT0(0):32"/>
				<v:ud v:nameU="DYBegin" v:prompt="" v:val="VT0(-0.01090819254934):1"/>
				<v:ud v:nameU="DXEnd" v:prompt="" v:val="VT0(0):1"/>
				<v:ud v:nameU="DYEnd" v:prompt="" v:val="VT0(-0.010908192549337):1"/>
				<v:ud v:nameU="EndAngle" v:prompt="" v:val="VT0(-1.5707963267949):32"/>
			</v:userDefs>
			<title>Abhängigkeit.81</title>
			<g id="shape81-115" v:mID="81" v:groupContext="groupContent" v:layerMember="0">
				<path d="M-0.61 371.78 L-0.61 390.38 L-13.56 390.38 L-13.56 411.19" class="st6"/>
			</g>
		</g>
		<g id="group86-120" transform="translate(225.443,-222.42)" v:mID="86" v:groupContext="group" v:layerMember="0">
			<v:userDefs>
				<v:ud v:nameU="visVersion" v:prompt="" v:val="VT0(15):26"/>
				<v:ud v:nameU="RelationshipName" v:prompt="" v:val="VT4()"/>
				<v:ud v:nameU="ShowMulti" v:prompt="" v:val="VT0(0):26"/>
				<v:ud v:nameU="Identifying" v:prompt="" v:val="VT0(1):26"/>
				<v:ud v:nameU="DXBegin" v:prompt="" v:val="VT0(0):1"/>
				<v:ud v:nameU="DYBegin" v:prompt="" v:val="VT0(-0.029527559055118):1"/>
				<v:ud v:nameU="DXEnd" v:prompt="" v:val="VT0(0.029527559055118):1"/>
				<v:ud v:nameU="DYEnd" v:prompt="" v:val="VT0(0):1"/>
				<v:ud v:nameU="BeginAngle" v:prompt="" v:val="VT0(-1.5707963267949):32"/>
				<v:ud v:nameU="EndAngle" v:prompt="" v:val="VT0(0):32"/>
				<v:ud v:nameU="DXBegin" v:prompt="" v:val="VT0(0.031523752893997):1"/>
				<v:ud v:nameU="DYBegin" v:prompt="" v:val="VT0(8.8817841970013E-16):1"/>
				<v:ud v:nameU="DXEnd" v:prompt="" v:val="VT0(0.031523752893996):1"/>
				<v:ud v:nameU="BeginAngle" v:prompt="" v:val="VT0(0):32"/>
			</v:userDefs>
			<title>Abhängigkeit.86</title>
			<g id="shape86-121" v:mID="86" v:groupContext="groupContent" v:layerMember="0">
				<path d="M0 371.78 L31.91 371.78 L31.91 306.66 L86.19 306.66" class="st6"/>
			</g>
		</g>
		<g id="group91-126" transform="translate(272.456,-220.04)" v:mID="91" v:groupContext="group" v:layerMember="0">
			<v:userDefs>
				<v:ud v:nameU="visVersion" v:prompt="" v:val="VT0(15):26"/>
				<v:ud v:nameU="RelationshipName" v:prompt="" v:val="VT4()"/>
				<v:ud v:nameU="ShowMulti" v:prompt="" v:val="VT0(0):26"/>
				<v:ud v:nameU="Identifying" v:prompt="" v:val="VT0(1):26"/>
				<v:ud v:nameU="DXBegin" v:prompt="" v:val="VT0(0):1"/>
				<v:ud v:nameU="DYBegin" v:prompt="" v:val="VT0(-0.029527559055118):1"/>
				<v:ud v:nameU="DXEnd" v:prompt="" v:val="VT0(0.029527559055118):1"/>
				<v:ud v:nameU="DYEnd" v:prompt="" v:val="VT0(0):1"/>
				<v:ud v:nameU="BeginAngle" v:prompt="" v:val="VT0(-1.5707963267949):32"/>
				<v:ud v:nameU="EndAngle" v:prompt="" v:val="VT0(0):32"/>
				<v:ud v:nameU="DXBegin" v:prompt="" v:val="VT0(-0.01004965973731):1"/>
				<v:ud v:nameU="DYBegin" v:prompt="" v:val="VT0(0):1"/>
				<v:ud v:nameU="DXEnd" v:prompt="" v:val="VT0(-0.010049659737311):1"/>
				<v:ud v:nameU="BeginAngle" v:prompt="" v:val="VT0(3.1415926535898):32"/>
				<v:ud v:nameU="EndAngle" v:prompt="" v:val="VT0(3.1415926535898):32"/>
			</v:userDefs>
			<title>Abhängigkeit.91</title>
			<g id="shape91-127" v:mID="91" v:groupContext="groupContent" v:layerMember="0">
				<path d="M0 378.26 L-36 378.26 L-36 379.48 L-47.01 379.48" class="st6"/>
			</g>
		</g>
		<g id="group96-132" transform="translate(375.415,-191.163)" v:mID="96" v:groupContext="group">
			<v:userDefs>
				<v:ud v:nameU="visVersion" v:prompt="" v:val="VT0(15):26"/>
			</v:userDefs>
			<title>Zustand.96</title>
			<g id="shape96-133" v:mID="96" v:groupContext="groupContent">
				<rect x="0" y="326.981" width="105.446" height="44.8037" rx="8.50394" ry="8.50394" class="st1"/>
			</g>
			<g id="shape97-135" v:mID="97" v:groupContext="shape" transform="translate(0,-22.4)">
				<title>Tabelle.97</title>
				<desc>Foyer - Mitarbeiter</desc>
				<v:userDefs>
					<v:ud v:nameU="UmlRole" v:prompt="" v:val="VT4(Title)"/>
				</v:userDefs>
				<v:textBlock v:margins="rect(4,4,4,4)" v:tabSpace="42.5197"/>
				<v:textRect cx="52.7229" cy="360.582" width="105.45" height="22.4037"/>
				<path d="M8.5 371.78 L96.94 371.78 A8.50394 8.50394 -180 0 0 105.45 363.28 L105.45 357.88 A8.50394 8.50394 -180 0
							 0 96.94 349.38 L8.5 349.38 A8.50394 8.50394 -180 0 0 0 357.88 L0 363.28 A8.50394 8.50394 -180 0 0 8.5
							 371.78 Z" class="st2"/>
				<text x="5.36" y="364.18" class="st3" v:langID="1031"><v:paragraph v:horizAlign="1"/><v:tabList/>Foyer - Mitarbeiter</text>			</g>
			<g id="shape98-138" v:mID="98" v:groupContext="shape">
				<title>Tabelle.98</title>
				<v:userDefs>
					<v:ud v:nameU="UmlRole" v:prompt="" v:val="VT4(Body)"/>
				</v:userDefs>
				<path d="M8.5 371.78 L96.94 371.78 A8.50394 8.50394 -180 0 0 105.45 363.28 L105.45 357.89 A8.50394 8.50394 -180 0
							 0 96.94 349.38 L8.5 349.38 A8.50394 8.50394 -180 0 0 0 357.89 L0 363.28 A8.50394 8.50394 -180 0 0 8.5
							 371.78 Z" class="st4"/>
			</g>
		</g>
		<g id="group99-140" transform="translate(480.861,-206.479)" v:mID="99" v:groupContext="group" v:layerMember="0">
			<v:userDefs>
				<v:ud v:nameU="visVersion" v:prompt="" v:val="VT0(15):26"/>
				<v:ud v:nameU="RelationshipName" v:prompt="" v:val="VT4()"/>
				<v:ud v:nameU="ShowMulti" v:prompt="" v:val="VT0(0):26"/>
				<v:ud v:nameU="Identifying" v:prompt="" v:val="VT0(1):26"/>
				<v:ud v:nameU="DXBegin" v:prompt="" v:val="VT0(0):1"/>
				<v:ud v:nameU="DYBegin" v:prompt="" v:val="VT0(-0.029527559055118):1"/>
				<v:ud v:nameU="DXEnd" v:prompt="" v:val="VT0(0.029527559055118):1"/>
				<v:ud v:nameU="DYEnd" v:prompt="" v:val="VT0(0):1"/>
				<v:ud v:nameU="BeginAngle" v:prompt="" v:val="VT0(-1.5707963267949):32"/>
				<v:ud v:nameU="EndAngle" v:prompt="" v:val="VT0(0):32"/>
				<v:ud v:nameU="DXBegin" v:prompt="" v:val="VT0(0.012284104801531):1"/>
				<v:ud v:nameU="DYBegin" v:prompt="" v:val="VT0(8.8817841970013E-16):1"/>
				<v:ud v:nameU="DXEnd" v:prompt="" v:val="VT0(0.01228410480153):1"/>
				<v:ud v:nameU="BeginAngle" v:prompt="" v:val="VT0(0):32"/>
			</v:userDefs>
			<title>Abhängigkeit.99</title>
			<g id="shape99-141" v:mID="99" v:groupContext="groupContent" v:layerMember="0">
				<path d="M0 364.7 L58.96 364.7" class="st6"/>
			</g>
		</g>
		<g id="group104-146" transform="translate(364.077,-274.152)" v:mID="104" v:groupContext="group" v:layerMember="0">
			<v:userDefs>
				<v:ud v:nameU="visVersion" v:prompt="" v:val="VT0(15):26"/>
				<v:ud v:nameU="RelationshipName" v:prompt="" v:val="VT4()"/>
				<v:ud v:nameU="ShowMulti" v:prompt="" v:val="VT0(0):26"/>
				<v:ud v:nameU="Identifying" v:prompt="" v:val="VT0(1):26"/>
				<v:ud v:nameU="DXBegin" v:prompt="" v:val="VT0(0):1"/>
				<v:ud v:nameU="DYBegin" v:prompt="" v:val="VT0(-0.029527559055118):1"/>
				<v:ud v:nameU="DXEnd" v:prompt="" v:val="VT0(0.029527559055118):1"/>
				<v:ud v:nameU="DYEnd" v:prompt="" v:val="VT0(0):1"/>
				<v:ud v:nameU="BeginAngle" v:prompt="" v:val="VT0(-1.5707963267949):32"/>
				<v:ud v:nameU="EndAngle" v:prompt="" v:val="VT0(0):32"/>
				<v:ud v:nameU="DYBegin" v:prompt="" v:val="VT0(-0.021301365689875):1"/>
				<v:ud v:nameU="DXEnd" v:prompt="" v:val="VT0(0):1"/>
				<v:ud v:nameU="DYEnd" v:prompt="" v:val="VT0(-0.021301365689875):1"/>
				<v:ud v:nameU="EndAngle" v:prompt="" v:val="VT0(-1.5707963267949):32"/>
			</v:userDefs>
			<title>Abhängigkeit.104</title>
			<g id="shape104-147" v:mID="104" v:groupContext="groupContent" v:layerMember="0">
				<path d="M0 371.78 L0 389.78 L64.06 389.78 L64.06 409.97" class="st6"/>
			</g>
		</g>
		<g id="group109-152" transform="translate(428.138,-191.163)" v:mID="109" v:groupContext="group" v:layerMember="0">
			<v:userDefs>
				<v:ud v:nameU="visVersion" v:prompt="" v:val="VT0(15):26"/>
				<v:ud v:nameU="RelationshipName" v:prompt="" v:val="VT4()"/>
				<v:ud v:nameU="ShowMulti" v:prompt="" v:val="VT0(0):26"/>
				<v:ud v:nameU="Identifying" v:prompt="" v:val="VT0(1):26"/>
				<v:ud v:nameU="DXBegin" v:prompt="" v:val="VT0(0):1"/>
				<v:ud v:nameU="DYBegin" v:prompt="" v:val="VT0(-0.029527559055118):1"/>
				<v:ud v:nameU="DXEnd" v:prompt="" v:val="VT0(0.029527559055118):1"/>
				<v:ud v:nameU="DYEnd" v:prompt="" v:val="VT0(0):1"/>
				<v:ud v:nameU="BeginAngle" v:prompt="" v:val="VT0(-1.5707963267949):32"/>
				<v:ud v:nameU="EndAngle" v:prompt="" v:val="VT0(0):32"/>
				<v:ud v:nameU="DYBegin" v:prompt="" v:val="VT0(-0.025857934355898):1"/>
				<v:ud v:nameU="DXEnd" v:prompt="" v:val="VT0(0.025857934355898):1"/>
			</v:userDefs>
			<title>Abhängigkeit.109</title>
			<g id="shape109-153" v:mID="109" v:groupContext="groupContent" v:layerMember="0">
				<path d="M0 371.78 L0 432.37 L63.53 432.37" class="st6"/>
			</g>
		</g>
		<g id="group114-158" transform="translate(313.053,-191.163)" v:mID="114" v:groupContext="group" v:layerMember="0">
			<v:userDefs>
				<v:ud v:nameU="visVersion" v:prompt="" v:val="VT0(15):26"/>
				<v:ud v:nameU="RelationshipName" v:prompt="" v:val="VT4()"/>
				<v:ud v:nameU="ShowMulti" v:prompt="" v:val="VT0(0):26"/>
				<v:ud v:nameU="Identifying" v:prompt="" v:val="VT0(1):26"/>
				<v:ud v:nameU="DXBegin" v:prompt="" v:val="VT0(0):1"/>
				<v:ud v:nameU="DYBegin" v:prompt="" v:val="VT0(-0.029527559055118):1"/>
				<v:ud v:nameU="DXEnd" v:prompt="" v:val="VT0(0.029527559055118):1"/>
				<v:ud v:nameU="DYEnd" v:prompt="" v:val="VT0(0):1"/>
				<v:ud v:nameU="BeginAngle" v:prompt="" v:val="VT0(-1.5707963267949):32"/>
				<v:ud v:nameU="EndAngle" v:prompt="" v:val="VT0(0):32"/>
				<v:ud v:nameU="DYBegin" v:prompt="" v:val="VT0(-0.020754489500682):1"/>
				<v:ud v:nameU="DXEnd" v:prompt="" v:val="VT0(-0.020754489500684):1"/>
				<v:ud v:nameU="EndAngle" v:prompt="" v:val="VT0(-3.1415926535898):32"/>
			</v:userDefs>
			<title>Abhängigkeit.114</title>
			<g id="shape114-159" v:mID="114" v:groupContext="groupContent" v:layerMember="0">
				<path d="M0 371.78 L0 423.08 L-48.32 423.08" class="st6"/>
			</g>
		</g>
		<g id="group119-164" transform="translate(206.687,-117.463)" v:mID="119" v:groupContext="group" v:layerMember="0">
			<v:userDefs>
				<v:ud v:nameU="visVersion" v:prompt="" v:val="VT0(15):26"/>
				<v:ud v:nameU="RelationshipName" v:prompt="" v:val="VT4()"/>
				<v:ud v:nameU="ShowMulti" v:prompt="" v:val="VT0(0):26"/>
				<v:ud v:nameU="Identifying" v:prompt="" v:val="VT0(1):26"/>
				<v:ud v:nameU="DXBegin" v:prompt="" v:val="VT0(0):1"/>
				<v:ud v:nameU="DYBegin" v:prompt="" v:val="VT0(-0.029527559055118):1"/>
				<v:ud v:nameU="DXEnd" v:prompt="" v:val="VT0(0.029527559055118):1"/>
				<v:ud v:nameU="DYEnd" v:prompt="" v:val="VT0(0):1"/>
				<v:ud v:nameU="BeginAngle" v:prompt="" v:val="VT0(-1.5707963267949):32"/>
				<v:ud v:nameU="EndAngle" v:prompt="" v:val="VT0(0):32"/>
				<v:ud v:nameU="DYBegin" v:prompt="" v:val="VT0(-0.031197044402701):1"/>
				<v:ud v:nameU="DXEnd" v:prompt="" v:val="VT0(-4.4408920985006E-16):1"/>
				<v:ud v:nameU="DYEnd" v:prompt="" v:val="VT0(-0.031197044402701):1"/>
				<v:ud v:nameU="EndAngle" v:prompt="" v:val="VT0(-1.5707963267949):32"/>
			</v:userDefs>
			<title>Abhängigkeit.119</title>
			<g id="shape119-165" v:mID="119" v:groupContext="groupContent" v:layerMember="0">
				<path d="M0 371.78 L0 407.78 L-95.34 407.78 L-95.34 426.19" class="st6"/>
			</g>
		</g>
		<g id="group124-170" transform="translate(206.687,-117.463)" v:mID="124" v:groupContext="group" v:layerMember="0">
			<v:userDefs>
				<v:ud v:nameU="visVersion" v:prompt="" v:val="VT0(15):26"/>
				<v:ud v:nameU="RelationshipName" v:prompt="" v:val="VT4()"/>
				<v:ud v:nameU="ShowMulti" v:prompt="" v:val="VT0(0):26"/>
				<v:ud v:nameU="Identifying" v:prompt="" v:val="VT0(1):26"/>
				<v:ud v:nameU="DXBegin" v:prompt="" v:val="VT0(0):1"/>
				<v:ud v:nameU="DYBegin" v:prompt="" v:val="VT0(-0.029527559055118):1"/>
				<v:ud v:nameU="DXEnd" v:prompt="" v:val="VT0(0.029527559055118):1"/>
				<v:ud v:nameU="DYEnd" v:prompt="" v:val="VT0(0):1"/>
				<v:ud v:nameU="BeginAngle" v:prompt="" v:val="VT0(-1.5707963267949):32"/>
				<v:ud v:nameU="EndAngle" v:prompt="" v:val="VT0(0):32"/>
				<v:ud v:nameU="DXBegin" v:prompt="" v:val="VT0(0.029254593844779):1"/>
				<v:ud v:nameU="DYBegin" v:prompt="" v:val="VT0(0):1"/>
				<v:ud v:nameU="DXEnd" v:prompt="" v:val="VT0(0):1"/>
				<v:ud v:nameU="DYEnd" v:prompt="" v:val="VT0(-0.02925459384478):1"/>
				<v:ud v:nameU="BeginAngle" v:prompt="" v:val="VT0(0):32"/>
				<v:ud v:nameU="EndAngle" v:prompt="" v:val="VT0(-1.5707963267949):32"/>
			</v:userDefs>
			<title>Abhängigkeit.124</title>
			<g id="shape124-171" v:mID="124" v:groupContext="groupContent" v:layerMember="0">
				<path d="M0 371.78 L24.74 371.78 L24.74 407.78 L86.01 407.78 L86.01 426.19" class="st6"/>
			</g>
		</g>
	</g>
</svg>
